<!-- by TradingView --><svg width="56" height="56" viewBox="0 0 56 56" xmlns="http://www.w3.org/2000/svg"><path fill="url(#apz3xlbff)" d="M0 0h56v56H0z"/><path d="M27.26 34.43c-.89.84-2.26 1.52-3.47 2a23.67 23.67 0 0 1-10.4 1.42c.64-1.39 2.12-2.37 3.57-2.97A1.22 1.22 0 0 0 19 34c0-.67-.55-1.2-1.22-1.2-.6 0-1.1.43-1.2.99-2 .82-4.04 2.3-4.56 4.43-.1.39.18.7.56.73 3.93.34 8 .04 11.67-1.46a12.35 12.35 0 0 0 3.83-2.24c.55-.52-.28-1.33-.82-.82Zm-9.48-1.15c.4 0 .73.32.73.72 0 .4-.33.72-.73.72a.73.73 0 0 1-.73-.72c0-.4.33-.72.73-.72Z" fill="url(#bpz3xlbff)"/><path d="M28.74 34.43c.89.84 2.26 1.52 3.47 2a23.67 23.67 0 0 0 10.4 1.42c-.64-1.39-2.12-2.37-3.57-2.97A1.22 1.22 0 0 1 37 34c0-.67.55-1.2 1.22-1.2.6 0 1.1.43 1.2.99 2 .82 4.04 2.3 4.56 4.43.1.39-.18.7-.56.73-3.93.34-8 .04-11.67-1.46a12.35 12.35 0 0 1-3.83-2.24c-.55-.52.28-1.33.82-.82Zm9.48-1.15c-.4 0-.73.32-.73.72 0 .4.33.72.73.72.4 0 .73-.32.73-.72 0-.4-.33-.72-.73-.72Z" fill="url(#cpz3xlbff)"/><path d="M43.06 20.45c-3.86-.72-7.44 1.58-9.41 4.69-.68 0-1.23.54-1.23 1.2 0 .67.55 1.2 1.23 1.2.67 0 1.22-.53 1.22-1.2 0-.24-.07-.46-.2-.65a8.59 8.59 0 0 1 5.1-3.93 8.18 8.18 0 0 1 2.43-.25 17.64 17.64 0 0 1-2.5 6.27c-2.31 3.49-6.7 6.17-10.87 6.29-.76.02-.76 1.18 0 1.15a16.12 16.12 0 0 0 8.78-3.44c3.31-2.64 5.14-6.56 5.86-10.62.05-.3-.08-.65-.41-.71Zm-9.41 6.61a.73.73 0 0 1-.74-.72c0-.4.33-.72.74-.72.4 0 .73.32.73.72 0 .4-.33.72-.73.72Z" fill="url(#dpz3xlbff)"/><path d="M13.47 20.45c3.85-.72 7.44 1.58 9.4 4.69.68 0 1.23.54 1.23 1.2 0 .67-.55 1.2-1.22 1.2-.68 0-1.23-.53-1.23-1.2 0-.24.07-.46.2-.65a8.58 8.58 0 0 0-5.1-3.93 8.18 8.18 0 0 0-2.43-.25 17.64 17.64 0 0 0 2.5 6.27c2.31 3.49 6.7 6.17 10.87 6.29.76.02.76 1.18 0 1.15a16.12 16.12 0 0 1-8.78-3.44c-3.31-2.64-5.13-6.56-5.85-10.62-.05-.3.07-.65.4-.71Zm9.4 6.61c.41 0 .74-.32.74-.72 0-.4-.33-.72-.73-.72-.41 0-.74.32-.74.72 0 .4.33.72.74.72Z" fill="url(#epz3xlbff)"/><path d="M28.5 42.4V18.73c0-.4-.2-.72-.58-.72-.37 0-.42.32-.42.72v23.7c-.37.24-.87.68-.87 1.18 0 .77.58 1.4 1.3 1.4.71 0 1.3-.63 1.3-1.4 0-.5-.35-.95-.73-1.2Zm-.57 2.04c-.43 0-.78-.37-.78-.84 0-.46.35-.84.78-.84.43 0 .77.38.77.84 0 .47-.34.84-.77.84Z" fill="url(#fpz3xlbff)"/><path d="M28.9 11.97a1.2 1.2 0 0 0-.92-1.97 1.2 1.2 0 0 0-.97 1.91c-3.58 6.48-4.17 14.26-.65 20.9.26.5.54.99.87 1.44.15.2.36.26.56.24.23.25.71.33.98-.03.33-.45.6-.95.87-1.44 3.55-6.7 2.92-14.54-.73-21.05Zm-.92-1.49a.72.72 0 1 1 0 1.45.72.72 0 0 1 0-1.45Zm.1 22.96c-2.69-3.8-3.48-9.17-2.72-13.65a22.9 22.9 0 0 1 2.58-7.19c1.3 2.31 2.25 4.78 2.7 7.4.74 4.4 0 9.65-2.57 13.44Z" fill="url(#gpz3xlbff)"/><defs><linearGradient id="apz3xlbff" x1="28" y1="0" x2="28" y2="56" gradientUnits="userSpaceOnUse"><stop stop-color="#1F1F57"/><stop offset="1" stop-color="#181945"/></linearGradient><linearGradient id="bpz3xlbff" x1="14.36" y1="39.08" x2="28.24" y2="35.15" gradientUnits="userSpaceOnUse"><stop offset=".42" stop-color="#48ACE1"/><stop offset="1" stop-color="#48ACE1" stop-opacity="0"/></linearGradient><linearGradient id="cpz3xlbff" x1="41.64" y1="39.08" x2="27.76" y2="35.15" gradientUnits="userSpaceOnUse"><stop offset=".42" stop-color="#48ACE1"/><stop offset="1" stop-color="#48ACE1" stop-opacity="0"/></linearGradient><linearGradient id="dpz3xlbff" x1="43.48" y1="22.74" x2="28.39" y2="35.38" gradientUnits="userSpaceOnUse"><stop offset=".5" stop-color="#22AC98"/><stop offset="1" stop-color="#22AC98" stop-opacity="0"/></linearGradient><linearGradient id="epz3xlbff" x1="13.05" y1="22.74" x2="28.13" y2="35.38" gradientUnits="userSpaceOnUse"><stop offset=".5" stop-color="#22AC98"/><stop offset="1" stop-color="#22AC98" stop-opacity="0"/></linearGradient><linearGradient id="fpz3xlbff" x1="30.09" y1="42.52" x2="30" y2="18" gradientUnits="userSpaceOnUse"><stop offset=".64" stop-color="#E5672F"/><stop offset=".92" stop-color="#E5672F" stop-opacity="0"/></linearGradient><linearGradient id="gpz3xlbff" x1="28" y1="10" x2="28" y2="34.71" gradientUnits="userSpaceOnUse"><stop offset=".35" stop-color="#E5672F"/><stop offset="1" stop-color="#E5672F" stop-opacity="0"/></linearGradient></defs></svg>