<!-- by TradingView --><svg width="56" height="56" viewBox="0 0 56 56" xmlns="http://www.w3.org/2000/svg"><path fill="#F0F3FA" d="M0 0h56v56H0z"/><circle cx="8" cy="22" r="2" fill="url(#ax3ml2gtp)"/><circle cx="8" cy="27" r="2" fill="url(#bx3ml2gtp)"/><circle cx="13" cy="27" r="2" fill="url(#cx3ml2gtp)"/><circle cx="13" cy="32" r="2" fill="url(#dx3ml2gtp)"/><circle cx="8" cy="32" r="2" fill="url(#ex3ml2gtp)"/><ellipse cx="39.26" cy="21.98" rx=".66" ry=".67" fill="#1099AA"/><path fill-rule="evenodd" d="M18 21v9.38c.4.2 1.4.62 2.3.62 1.11 0 3.2-.27 3.2-3s-2.02-3-2.74-3c-.46 0-1.23.17-1.76.78V21h-1Zm1 5.27v3.62c.23.18.85.53 1.44.53.75 0 2.06-.56 2.06-2.42 0-1.86-1.37-2.42-2.06-2.42-.68 0-1.26.49-1.44.7ZM24 21h1v10h-1V21Zm2 8.24V25h.92v3.74c0 .66.25 1.55 1.43 1.55.8 0 1.46-.56 1.8-.97v-4.3h.92v4.12c0 1.06.62 1.21.93 1.15l-.07.58a.84.84 0 0 1-.5.13c-.73 0-1.07-.5-1.2-.94-.36.36-1.16.94-2.1.94-1.64 0-2.1-1.26-2.13-1.76ZM34 28h3.55l.45-.56v-.61c0-.61-.51-1.83-2.29-1.83C33.5 25 33 27.07 33 28.16c0 1.1.73 2.84 2.71 2.84 1.18 0 2.02-.68 2.29-1.02l-.45-.47c-.16.22-.73.7-1.73.7-1.24 0-1.82-1.08-1.82-2.21Zm-.05-.72h3.32c-.13-.54-.53-1.62-1.62-1.62-1.23 0-1.7 1.22-1.7 1.62ZM39 25v6.65c0 .8-.5 1.44-1.31 1.44h-.4L37 34h.66A2.33 2.33 0 0 0 40 31.63V25h-1Zm2.3 1.52v-.8a3.9 3.9 0 0 1 2.09-.72c1.13 0 2.11.73 2.11 1.86v2.89c.01.27.02.61.5.61v.48c-.1.05-.34.16-.62.16-.34 0-.88-.36-.88-.79-.23.26-1.06.79-1.91.79-1.06 0-1.59-.76-1.59-1.7 0-.95 1.16-1.88 3.5-2.04.02-.5-.34-1.49-1.27-1.49-.93 0-1.68.5-1.93.75Zm3.2 1.33v1.85c-.2.2-.76.57-1.4.57-.81 0-1.1-.45-1.1-.98s.88-1.44 2.5-1.44Zm3.69 4.45.59-1.46-2.47-5.55 1.1-.26 1.77 4.82L51.14 25l.86.2c-.79 1.9-2.48 5.96-2.97 7.1-.6 1.42-1.6 1.7-2.09 1.7-.4 0-.79-.06-.94-.1l.25-.75c1.16.3 1.77-.44 1.94-.85Z" fill="#58585A"/><path opacity=".5" fill="#0FB8AD" d="M18 32h18v2H18z"/><defs><linearGradient id="ax3ml2gtp" x1="6.61" y1="20.84" x2="9.14" y2="23.45" gradientUnits="userSpaceOnUse"><stop stop-color="#0B868F"/><stop offset="1" stop-color="#14A6B4"/></linearGradient><linearGradient id="bx3ml2gtp" x1="6.61" y1="25.84" x2="9.14" y2="28.45" gradientUnits="userSpaceOnUse"><stop stop-color="#19ABB4"/><stop offset="1" stop-color="#40B8BC"/></linearGradient><linearGradient id="cx3ml2gtp" x1="11.61" y1="25.84" x2="14.14" y2="28.45" gradientUnits="userSpaceOnUse"><stop stop-color="#19ABB4"/><stop offset="1" stop-color="#85CEBB"/></linearGradient><linearGradient id="dx3ml2gtp" x1="11.61" y1="30.84" x2="14.14" y2="33.45" gradientUnits="userSpaceOnUse"><stop stop-color="#8DCFBB"/><stop offset="1" stop-color="#C1E1C7"/></linearGradient><linearGradient id="ex3ml2gtp" x1="6.61" y1="30.84" x2="9.14" y2="33.45" gradientUnits="userSpaceOnUse"><stop stop-color="#52BAB6"/><stop offset="1" stop-color="#82CCBD"/></linearGradient></defs></svg>