<!-- by TradingView --><svg width="56" height="56" viewBox="0 0 56 56" xmlns="http://www.w3.org/2000/svg"><path fill="#F0F3FA" d="M0 0h56v56H0z"/><path fill-rule="evenodd" d="M19 19h2.12c.47 0 .88-.4.88-.87v-4.28c0-.47-.4-.85-.88-.85h-5.24c-1.6 0-2.88 1.3-2.88 2.88v24.24C13 41.7 14.29 43 15.88 43h24.24C41.7 43 43 41.7 43 40.12V34.9c0-.47-.38-.9-.86-.9h-4.26a.91.91 0 0 0-.88.9V37h-6V25H19v-6Zm6 18v-6h-6v6h6Z" fill="#2C2A25"/><path d="M25 13.44v5.12c0 .24.2.44.44.44H37v11.56c0 .24.22.44.46.44h5.1c.24 0 .44-.2.44-.44V13.44c0-.24-.2-.44-.44-.44H25.44c-.24 0-.44.2-.44.44Z" fill="#00B337"/></svg>