<!-- by TradingView --><svg width="56" height="56" viewBox="0 0 56 56" xmlns="http://www.w3.org/2000/svg"><path fill="#48C19E" d="M0 0h56v56H0z"/><path d="M29 12v16.17c.13 2.61 1.89 7.83 7.83 7.83 7.44 0 8.17-7.35 8.17-9 0-1.65-1.56-8-7.9-8-1.78 0-3.51.67-4.1 1.1V23a6.04 6.04 0 0 1 4.1-1.61c2.55 0 5.16 2.44 5.16 6.38 0 3.93-3.36 5.7-5.43 5.7-2.06 0-5.34-2.22-5.34-5.5V12H29Zm-5 19.98v3.04a9.19 9.19 0 0 1-4.12 1.07c-2.2 0-7.88-1.64-7.88-8.72 0-7.09 5.91-8.37 8.18-8.37 2.27 0 7.82 1.7 7.82 8.37v8.23c-.04 2.47-1.8 7.4-8.5 7.4-1.6 0-3.9-.7-4.84-1.04l.77-2.56a9.03 9.03 0 0 0 4.45 1.07c2.78 0 5.56-1.22 5.56-5.8v-8.05c-.16-1.7-1.3-5.1-5.36-5.1-4.06 0-5.45 3.71-5.45 6.41 0 .48.71 5.6 5.25 5.6A5.8 5.8 0 0 0 24 31.98Z" fill="#fff"/></svg>