<!-- by TradingView --><svg width="56" height="56" viewBox="0 0 56 56" xmlns="http://www.w3.org/2000/svg"><path fill="#343436" d="M0 0h56v56H0z"/><path fill-rule="evenodd" d="M38.39 43.56v-.04c0-.3.23-.52.51-.52h.53c.28 0 .57-.23.57-.52V13.53c0-.29-.29-.53-.57-.53h-.9a.54.54 0 0 0-.53.53v29.95c0 .29-.23.52-.51.52h-1.34a.52.52 0 0 1-.51-.52c0-.28.23-.48.51-.48h.37c.29 0 .48-.23.48-.52V13.53c0-.29-.17-.53-.45-.53H35.5c-.28 0-.5.24-.5.53v29.95c0 .29-.24.52-.52.52H21.56c-.28 0-.56-.23-.56-.52V13.53c0-.29-.12-.53-.4-.53h-1.23c-.28 0-.38.24-.38.53v28.74c0 .29.27.52.55.52h.25c.28 0 .51.23.51.52v.17c0 .29-.23.52-.51.52h-1.2c-.3 0-.59-.23-.59-.52V13.53c0-.29-.16-.53-.45-.53h-1.1c-.28 0-.45.24-.45.53v29.02c0 .25.3.46.55.46.26 0 .46.2.46.47 0 .29-.23.52-.51.52h-.99a.52.52 0 0 1-.51-.52V12.52c0-.29.23-.52.51-.52H40.5c.28 0 .51.23.51.52v30.96c0 .29-.23.52-.51.52H38.9c-.28 0-.51-.16-.51-.44ZM22 13.5v10.45c0 .36.42.61.78.43A5.83 5.83 0 0 0 26 20.26V13.5c0-.29-.26-.52-.6-.52h-2.8c-.34 0-.6.23-.6.52Zm12 0v10.46c0 .36-.42.61-.78.43A5.83 5.83 0 0 1 30 20.27v-6.75c0-.29.26-.52.6-.52h2.8c.34 0 .6.23.6.52Zm-5 2v4.19a6.64 6.64 0 0 0 4.6 5.78c.24.08.4.28.4.5v2.51c0 .28-.25.51-.56.51H22.56c-.31 0-.56-.23-.56-.5v-2.55c0-.2.14-.4.35-.48 1.6-.68 4.65-2.57 4.65-5.77v-4.2c0-.27.24-.5.55-.5h.92c.3 0 .53.23.53.5Zm0-2.15c0-.2-.16-.36-.35-.36h-1.3c-.2 0-.35.16-.35.36v.28c0 .2.16.36.35.36h1.3c.2 0 .35-.16.35-.36v-.28ZM33.44 30c.31 0 .56.23.56.52v6.96c0 .29-.25.52-.56.52H22.56c-.31 0-.56-.23-.56-.52v-6.96c0-.29.25-.52.56-.52h10.88Zm.56 9.58a.57.57 0 0 0-.56-.58H22.56c-.31 0-.56.26-.56.58v2.84c0 .32.25.58.56.58h10.88c.31 0 .56-.26.56-.58v-2.84Z" fill="url(#ava04irno)"/><defs><linearGradient id="ava04irno" x1="41.37" y1="27.17" x2="15.7" y2="27.17" gradientUnits="userSpaceOnUse"><stop stop-color="#86533B"/><stop offset="1" stop-color="#A9744C"/></linearGradient></defs></svg>