<!-- by TradingView --><svg width="56" height="56" viewBox="0 0 56 56" xmlns="http://www.w3.org/2000/svg"><path fill="#F0F3FA" d="M0 0h56v56H0z"/><path d="M26.65 11h2.55c8.83.7 15.15 7.85 15.8 16.46a18.93 18.93 0 0 1-1.61 7.85h-.02l-.02-.01v-.02c.03-.12.12-.25.16-.36 1.13-3.13.82-6.38.01-9.56a14.85 14.85 0 0 0-21.37-9.56c-3.2 1.66-2.27 4.62-.71 7.02 2.62 4.03 5.91 7.5 9.37 10.81l.03.06a.4.4 0 0 0 .03.06c.03.04.03.05-.02.02-3.18-2.3-6.38-4.59-9.21-7.3-2.16-2.08-4.68-4.99-5-8.1-.52-5.15 6.22-7.08 10.01-7.37Z" fill="#595A5C"/><path d="M31.56 33.89a49.98 49.98 0 0 1-4.2-4.48c-1.92-2.34-3.9-5.18-5.03-8.12-.47-1.25-.72-2.63.31-3.66a5.91 5.91 0 0 1 2.7-1.26.06.06 0 0 1 .02.05c.06 1.1.1 2.29.24 3.31.74 5.13 3.28 9.8 6 14.13v.02a.02.02 0 0 1-.04.01ZM22.29 27.98a97.15 97.15 0 0 0 7.4 5.33c.2.13.2.15-.02.05a184.54 184.54 0 0 1-8.74-4.15 53.56 53.56 0 0 1-3.55-1.97 15.92 15.92 0 0 1-2.47-1.77c-1.9-1.8-1.78-4.34-.85-6.62a.04.04 0 0 1 .03-.02h.03l.01.02c2 3.62 4.97 6.54 8.16 9.13Z" fill="#1893D0"/><path d="m27.5 32.75.33.11c.03.01.03.03.02.05 0 .02-.02.02-.04.02-3.54-.65-7.05-1.26-10.6-2.14-1.43-.35-3.15-.92-4.3-1.82-1.72-1.35-2.03-3.31-1.84-5.43a.05.05 0 0 1 .03-.04.05.05 0 0 1 .05.01c2.07 2.86 4.96 4.68 8.16 6.07a124.6 124.6 0 0 0 8.19 3.17ZM31.37 28c1.73.77 3.7 1.27 4.43 3.26.23.6.35 1.29.36 2.07 0 .04.02.07.04.1l3.9 4.4c.18.2.15.24-.08.11-2.47-1.4-5-2.85-7.57-4.35a3.61 3.61 0 0 1-1.41-1.49 33.5 33.5 0 0 1-2.73-6.36h.02A8.47 8.47 0 0 0 31.37 28Z" fill="#1893D0"/><path d="M11 30.37a68.38 68.38 0 0 0 14.56 2.48v.02l-10.3 1.24c-.04 0-.05.02-.04.05 2.03 5.38 7.2 9.3 13 9.56 4.05.18 8.46-.74 11.61-3.47.02-.01.04-.02.06 0l.02.01v.01A17.46 17.46 0 0 1 30.08 45h-4.16c-.16-.03-.34-.01-.48-.03A17.02 17.02 0 0 1 11 30.67v-.3Z" fill="#595A5C"/></svg>