<!-- by TradingView --><svg width="56" height="56" viewBox="0 0 56 56" xmlns="http://www.w3.org/2000/svg"><path fill="#F0F3FA" d="M0 0h56v56H0z"/><path fill-rule="evenodd" d="m15.52 13 1.62 10h8.09l-9.71-10Zm1.92 12.01L27.99 47l10.68-21.99-10.68 7.81-10.55-7.8Zm-.73 2.41L15 31.98l7.35 8.98-5.64-13.54ZM41 31.98l-1.7-4.56-5.65 13.54L41 31.98ZM38.93 23l1.62-10-9.7 10h8.08Zm-3.08 2H29.3v.93h-.52V25h-1.15c.3 0 .56.24.56.55v.98a.57.57 0 0 1-.34.35c.09.05.28.19.34.37v1.2c0 .3-.25.55-.56.55h-.24a.55.55 0 0 1-.56-.55v-.75h.52v.83c0 .07.06.13.14.13.07 0 .14-.06.14-.13V27.3a.28.28 0 0 0-.28-.28h-.25v-.26h.25c.15 0 .28-.13.28-.28V25.4a.13.13 0 0 0-.14-.13.13.13 0 0 0-.14.13v.95h-.52v-.8c0-.3.25-.54.56-.54H20.2l4.97 3.8a.5.5 0 0 1-.17-.38v-1.87c0-.29.25-.52.56-.52h.17c.31 0 .56.23.56.52v.52h-.56v-.64c0-.06-.06-.12-.12-.12-.07 0-.13.06-.13.12v2.13c0 .06.06.11.13.11.06 0 .12-.05.12-.11V28h.56v.41c0 .3-.25.53-.56.53h-.17a.58.58 0 0 1-.32-.1l2.8 2.15 7.81-6Zm-7.26 1.28v-.2h.65v2.7h.17V29h-.82v-.22h.17v-2.5h-.17Zm2.01.72h.4v-.45c0-.3-.26-.55-.58-.55a.57.57 0 0 0-.58.55v.53c0 .13.05.26.15.35l.53.5c.05.05.08.11.08.18v.41c0 .09-.07.15-.16.15a.15.15 0 0 1-.16-.15v-.51h-.44v.44c0 .3.26.55.58.55.32 0 .58-.25.58-.55v-.57a.5.5 0 0 0-.16-.37l-.45-.43a.27.27 0 0 1-.09-.2v-.45c0-.08.07-.14.15-.14.08 0 .15.06.15.14V27Z" fill="#30271C"/></svg>