<!-- by TradingView --><svg width="56" height="56" viewBox="0 0 56 56" xmlns="http://www.w3.org/2000/svg"><path fill="#F0F3FA" d="M0 0h56v56H0z"/><path d="M20.33 31.7c.22-1.7 1.6-5.1 5.33-5.1h4c1.33 0 4-.64 4-3.2 0-3.19-4-4.46-6.67-4.46-2.66 0-12 2.55-12 10.21 0 3.2 2.67 9.57 13.33 9.57 13.33 0 16.66-10.2 16.66-12.76.22 3.62-1.46 11.49-10 14.04 2-.42 6.4-1.66 8-3.19-.77.92-2.61 2.75-4.48 3.54.76-.26 1.75-.63 2.48-.99-1.33 1.7-6 4.73-13.99 3.2.67.42 3.2 1.14 8 .63-3.78 1.07-12.66 1.92-18-3.19 0 .43.14 1.4.67 1.92-2.22-1.7-6.66-6.64-6.66-12.77 0-7.66 4.66-16.6 16-16.6 1.77 0 5.99.39 8.65 1.92-.22-1.28-.4-3.96.67-4.47-.22.85-.4 2.8.67 3.83 1.33 1.28 6 6.38 3.33 12.13-2.67 5.74-8 5.1-8.66 5.1-.67 0-9.33-1.27-11.33.64Z" fill="#F4AB1D"/><path d="M36.82 13.66A16.53 16.53 0 0 0 40.81 20c.48 1.8.5 3.83-.5 5.96-2.48 5.37-7.3 5.16-8.47 5.11h-.18l-.82-.08c-2-.2-7.06-.73-9.52.15.71-.4 1.54-.71 2.34-.71.33 0 .86.03 1.52.07 3.37.23 10.25.68 12.47-1.99 2.67-3.19 3.33-6.38 1.33-8.3-2-1.91-4.66-3.83-10.66-3.83S15 20.85 15 29.15c-.22 3.62 1.86 11.23 12 12.77 5.81.88 11.04-1.44 14.97-4.37.4-.24.75-.48 1.01-.74-.77.92-2.61 2.75-4.48 3.54.76-.26 1.75-.63 2.48-.99-1.33 1.7-6 4.73-13.99 3.2.67.42 3.2 1.14 8 .63-3.78 1.07-12.66 1.92-18-3.19 0 .43.14 1.4.67 1.92-2.22-1.7-6.66-6.64-6.66-12.77 0-3.69 1.08-7.67 3.46-10.8C17.6 15.68 22 13.18 27 13.18c1.78 0 6.13.51 9.33 2.55a7.04 7.04 0 0 1-.07-5.7.82.82 0 0 1 .07-.04c-.21.8-.38 2.6.5 3.66Zm7.98 15.2a13.87 13.87 0 0 1-5.73 9.22c-1.8.65-3.63.75-4.75.64 2.77-1 7.86-4.16 10.48-9.86Z" fill="#ED8122"/><path d="M19 29.79c0 1.02 1.1 1.27 1.33 1.27 0-.2-.67-.76-.67-1.27 0-.64 1.33-2.56 1.33-3.2 0-.5-1.1-1.06-1.33-1.27 0 .21.67.77.67 1.28 0 .63-1.33 1.91-1.33 3.19Z" fill="#F4AB1D"/><path d="M24.33 29.15c0 .35-.3.64-.67.64a.65.65 0 0 1-.67-.64c0-.35.3-.64.67-.64.37 0 .67.29.67.64Z" fill="#BE1E2D"/></svg>