<!-- by TradingView --><svg width="56" height="56" viewBox="0 0 56 56" xmlns="http://www.w3.org/2000/svg"><path fill="#F0F3FA" d="M0 0h56v56H0z"/><path d="m20.77 30.58-7.73-4.3 5.28-3.84 7.22 4.3-4.77 3.84Z" fill="url(#aco0hmmfe)"/><path d="M13 19.76v6.53l20.68-12.07L28 11l-15 8.76Z" fill="url(#bco0hmmfe)"/><path d="m27.87 45-12.02-6.72c3.11-2.27 9.37-6.84 9.47-6.94.11-.1 11.87-7.86 17.68-11.72v3.22S28.68 30.9 21.57 34.93l6.3 3.88L43 30.11v6.56L27.87 45Z" fill="url(#cco0hmmfe)"/><path d="M13 36.48v-3.04l27.1-15.78 2.9 1.88-12.71 10.44-14.38 8.29L13 36.48Z" fill="url(#dco0hmmfe)"/><defs><linearGradient id="aco0hmmfe" x1="13.64" y1="26.73" x2="24.68" y2="25.57" gradientUnits="userSpaceOnUse"><stop stop-color="#19DAE1"/><stop offset="1" stop-color="#1590FF"/></linearGradient><linearGradient id="bco0hmmfe" x1="13.59" y1="24.19" x2="26.9" y2="12.66" gradientUnits="userSpaceOnUse"><stop stop-color="#014CFF"/><stop offset="1" stop-color="#0085FF"/></linearGradient><linearGradient id="cco0hmmfe" x1="42.4" y1="35.95" x2="16.49" y2="34.93" gradientUnits="userSpaceOnUse"><stop stop-color="#FD020B"/><stop offset=".57" stop-color="#FFB906"/><stop offset="1" stop-color="#F03C00"/></linearGradient><linearGradient id="dco0hmmfe" x1="13.45" y1="36.61" x2="39.05" y2="17.25" gradientUnits="userSpaceOnUse"><stop stop-color="#0087F7"/><stop offset="1" stop-color="#00E7FF"/></linearGradient></defs></svg>