<!-- by TradingView --><svg width="56" height="56" viewBox="0 0 56 56" xmlns="http://www.w3.org/2000/svg"><path fill="#F0F3FA" d="M0 0h56v56H0z"/><path d="M32.62 40.11c0 1.6-1.4 2.89-3.12 2.89-1.72 0-3.12-1.3-3.12-2.89 0-2.89 2.08-4.81 1.56-10.11 0 0 4.68 5.78 4.68 10.11Z" fill="#5C1501"/><path d="M20.72 41h-3.38c-.42 0-.7-.4-.55-.76 4.01-9.8 1.9-19.71-.65-25.78-.6-1.4.85-2.95 2.3-2.31 15.14 6.55 22.5 20.8 24.54 28.19.1.34-.18.66-.55.66H39a.58.58 0 0 1-.58-.44c-2.05-9.41-11.2-18.44-15.57-21.3 1.8 8.82-.24 18.01-1.6 21.4-.08.2-.3.34-.53.34Z" fill="#F95807"/></svg>