<!-- by TradingView --><svg width="56" height="56" viewBox="0 0 56 56" xmlns="http://www.w3.org/2000/svg"><path fill="#F0F3FA" d="M0 0h56v56H0z"/><path d="M11 29.5c0 1.79-1.06 3.5-3 3.5s-3-1.71-3-3.5S6.06 26 8 26s3 1.71 3 3.5Zm-1 0c0-1.34-.5-2.5-2-2.5s-2 1.16-2 2.5.5 2.5 2 2.5 2-1.16 2-2.5ZM13.74 33c-1.4 0-2.14-1.21-2.14-2.5 0-1.26.75-2.5 2.13-2.5.9 0 1.74.57 1.87 1.51h-.73c-.13-.52-.6-.84-1.13-.84-.98 0-1.42.95-1.42 1.81 0 .87.42 1.85 1.42 1.85.53 0 1-.31 1.13-.84h.73c-.14.93-.95 1.51-1.86 1.51ZM18.38 33c-.49 0-.91-.1-1.27-.3-.36-.22-.63-.5-.82-.88-.2-.37-.29-.8-.29-1.3s.1-.93.29-1.31A2.17 2.17 0 0 1 18.3 28c.27 0 .53.04.8.13a1.98 1.98 0 0 1 1.21 1.15c.13.3.19.69.19 1.14v.31h-3.94V30h3.14c0-.27-.06-.43-.17-.64a1.26 1.26 0 0 0-.49-.5c-.2-.13-.45-.2-.74-.2a1.47 1.47 0 0 0-1.33.8c-.12.23-.18.48-.18.74v.43c0 .37.06.68.2.93.13.25.32.45.56.58.24.13.52.2.83.2.21 0 .4-.03.56-.09.17-.06.32-.14.44-.25.12-.11.21-.26.28-.42l.76.2c-.08.24-.21.46-.4.64-.2.18-.42.33-.7.43-.28.1-.6.15-.94.15ZM22.52 33c-.31 0-.6-.06-.86-.17a1.47 1.47 0 0 1-.61-.5 1.39 1.39 0 0 1-.23-.81c0-.28.05-.5.17-.67.11-.18.26-.31.45-.41.19-.1.4-.17.63-.22.23-.05.46-.1.69-.12l.74-.09c.19-.02.33-.05.42-.1.08-.05.13-.13.13-.25v-.03a.96.96 0 0 0-.26-.72c-.18-.17-.44-.26-.8-.26-.36 0-.65.08-.86.24-.2.15-.35.32-.44.5l-.73-.26c.13-.3.3-.52.52-.68.22-.17.46-.28.72-.35a3.08 3.08 0 0 1 1.32-.04c.21.03.42.1.61.22.2.11.36.28.5.51.12.23.19.54.19.92V33h-.77v-.77H24c-.05.1-.14.22-.26.34-.12.12-.28.22-.49.3-.2.09-.44.13-.74.13Zm.12-.67c.3 0 .56-.05.77-.17.21-.11.37-.26.48-.44.1-.19.16-.38.16-.58v-.68c-.03.04-.1.07-.22.1a3.76 3.76 0 0 1-.79.14l-.32.04c-.2.02-.39.06-.56.12a.97.97 0 0 0-.42.25c-.1.1-.15.26-.15.45 0 .25.1.45.3.58.2.13.45.2.75.2ZM26.78 30.03V33H26v-5h.75v.84h.07c.11-.26.3-.46.54-.6.24-.16.55-.24.93-.24.34 0 .64.07.9.2.25.14.45.35.6.62.14.28.21.62.21 1.04V33h-.78v-3.08c0-.4-.1-.7-.3-.91-.21-.22-.5-.33-.85-.33-.25 0-.47.05-.67.16-.2.1-.34.26-.46.46-.1.2-.16.44-.16.73Z" fill="#243F7C"/><path d="M32 26.75V26h5v.75h-2V33h-1v-6.25h-2ZM39.12 33c-.44 0-.82-.1-1.13-.3-.32-.22-.56-.5-.74-.88-.17-.37-.25-.8-.25-1.3s.08-.93.25-1.31c.18-.38.41-.68.72-.89.3-.21.67-.32 1.08-.32.23 0 .47.04.7.13.23.08.44.22.63.4.19.2.34.44.45.75.11.3.17.69.17 1.14v.31h-3.5V30h2.79c0-.27-.05-.43-.15-.64a1.15 1.15 0 0 0-1.09-.7c-.28 0-.52.08-.72.23-.2.14-.36.33-.47.56-.1.24-.16.49-.16.75v.43c0 .37.06.68.18.93s.28.45.5.58c.2.13.46.2.74.2.18 0 .35-.03.5-.09a1.05 1.05 0 0 0 .63-.67l.68.2a1.62 1.62 0 0 1-.98 1.07c-.25.1-.52.15-.83.15ZM44.14 33c-.44 0-.82-.1-1.14-.32-.32-.22-.57-.51-.74-.89-.17-.37-.26-.8-.26-1.28 0-.5.09-.93.26-1.3.18-.38.43-.68.75-.89.32-.21.7-.32 1.12-.32.33 0 .63.06.9.19A1.67 1.67 0 0 1 46 29.5h-.73a1.15 1.15 0 0 0-.37-.58 1.09 1.09 0 0 0-.76-.26c-.28 0-.53.07-.74.22-.21.15-.38.36-.5.64a2.4 2.4 0 0 0-.17.95c0 .37.05.7.17.98.12.27.28.49.5.64.2.16.45.23.74.23.19 0 .36-.03.52-.1a1.06 1.06 0 0 0 .61-.74H46A1.74 1.74 0 0 1 44.14 33ZM47.77 30.13V33H47v-7h.77v2.86h.06c.12-.27.3-.49.53-.65.23-.16.55-.21.94-.21.34 0 .64.04.9.18.25.14.45.36.59.66.14.29.21.66.21 1.11V33h-.77v-3c0-.41-.1-.73-.3-.96-.2-.23-.5-.35-.85-.35-.25 0-.48.06-.68.17-.2.11-.35.27-.46.49-.12.21-.17.47-.17.78ZM14.6 23.67l-.6-.08c.67.6 2.17 1.37 3.19 1.7 7.9 2.56 14.83-2.56 24.46-2.97 4.38-.18 7.35.58 10.35 1.4a23.8 23.8 0 0 0-7.96-2.45c-12.76-1.8-20.05 6.03-29.44 2.4Z" fill="#FFD70C"/><path d="m13.7 23.74.6.08c11.84 1.19 15.09-3.93 23.26-3.42 1.76.11 2.14.34 3.44.58-1.37-1.36-5.23-2.41-8.85-1.8-6.22 1.04-13.2 5.38-24.32 2.38A20.8 20.8 0 0 1 5 20.54c-.23-.1-.2-.1-.4-.2l-.6-.25c.8.99 4.85 2.42 6.82 3 .95.26 1.98.4 2.88.65Z" fill="#243F7C"/></svg>