<!-- by TradingView --><svg width="56" height="56" viewBox="0 0 56 56" xmlns="http://www.w3.org/2000/svg"><path fill="#F0F3FA" d="M0 0h56v56H0z"/><path d="M17 25c1.8-1.33 7.33-4 15.05-4 5.78 0 10.7 1.57 12.82 2.6l-.27-1.52.85 1.43.7-1.51-.13 1.67 1.43-.8-1.06 1.28 1.61.21-1.58.4 1.18 1.15-1.5-.64.3 1.65-.85-1.43-.7 1.51.13-1.67-1.43.8 1.06-1.28-1.61-.21 1.58-.4-.27-.26a32.6 32.6 0 0 0-12.26-2.64c-6.85 0-11.6 1.64-15.05 3.66Zm-.77 2h1.2l-.04.13c-.2.93-.66 2.94-1.02 3.8.2.35.58 1.04.81 1.04.2 0 .44-.4.53-.6H18c0 .55-.16 1.63-.82 1.63-.65 0-1-.95-1.1-1.43a2.7 2.7 0 0 1-2.3 1.43C12.2 33 11 31.52 11 29.95c0-1.57 1.3-2.95 2.78-2.95 1.19 0 1.84 1.18 2.01 1.77l.44-1.77Zm-.63 2.9c-.13-.79-.64-2.36-1.68-2.36-1.29 0-1.48 1.72-1.48 2.36 0 .64.1 2.66 1.48 2.66 1.12 0 1.59-1.77 1.68-2.66Z" fill="#5DA9A5"/><path d="M19.9 27H19l2.07 5.94-.4 1.18h-.95V35h.82c.46 0 .86-.3 1.02-.77L24 27h-.9l-1.59 4.65-1.6-4.65Zm5.1 0h5v.92L26.41 32H30v1h-5v-.92L28.59 28H25v-1Zm20 0h1v6h-1z" fill="#656D6F"/><path fill-rule="evenodd" d="M49.5 27a2.5 2.5 0 0 0-2.5 2.5v1a2.5 2.5 0 0 0 5 0v-1a2.5 2.5 0 0 0-2.5-2.5Zm0 .99c-.83 0-1.5.67-1.5 1.5v.95a1.5 1.5 0 0 0 3 0v-.95c0-.83-.67-1.5-1.5-1.5Zm-16-.99a2.5 2.5 0 0 0-2.5 2.5v1a2.5 2.5 0 0 0 4.75 1.1l-.82-.64A1.5 1.5 0 0 1 32 30.5v-.17h4v-.83a2.5 2.5 0 0 0-2.5-2.5Zm1.5 2.48a1.5 1.5 0 0 0-3 0h3ZM4 25h3.68A2.3 2.3 0 0 1 10 27.3v.4a2.3 2.3 0 0 1-1.65 2.2L10 33H8.7l-1.6-3H5v3H4v-8Zm3.82 4H5v-3h2.82c.65 0 1.18.48 1.18 1.07v.86C9 28.52 8.47 29 7.82 29ZM37 25h3.49c1.2 0 2.19.93 2.19 2.08v.38a2 2 0 0 1-.56 1.39c.54.38.88.99.88 1.67v.38c0 1.16-1 2.1-2.24 2.1H39v-1h1.82c.65 0 1.18-.37 1.18-.82v-.8c0-.45-.53-.82-1.18-.82H38V34h-1v-9Zm4.73 2.51c0 .46-.4.83-.92.9H38V26h2.62c.61 0 1.11.41 1.11.92v.6Z" fill="#656D6F"/></svg>